<svg width="0" height="0" class="hidden" xmlns="http://www.w3.org/2000/svg">
    <symbol id="cart" xmlns="http://www.w3.org/2000/svg" fill="none" viewBox="0 0 18 19">
        <path fill-rule="evenodd" clip-rule="evenodd" d="M6 5C6 3.34315 7.34315 2 9 2C10.6569 2 12 3.34315 12 5H6ZM4 7C4 7.55228 4.44772 8 5 8C5.55228 8 6 7.55228 6 7H12C12 7.55228 12.4477 8 13 8C13.5523 8 14 7.55228 14 7H16V15C16 16.1046 15.1046 17 14 17H4C2.89543 17 2 16.1046 2 15V7H4ZM4 5C4 2.23858 6.23858 0 9 0C11.7614 0 14 2.23858 14 5H16C17.1046 5 18 5.89543 18 7V15C18 17.2091 16.2091 19 14 19H4C1.79086 19 0 17.2091 0 15V7C0 5.89543 0.89543 5 2 5H4Z" fill="currentColor"/>
    </symbol>
    <symbol id="calendar" xmlns="http://www.w3.org/2000/svg" fill="none" viewBox="0 0 18 20">
        <path fill-rule="evenodd" clip-rule="evenodd" d="M16 2H15V1C15 0.45 14.55 0 14 0C13.45 0 13 0.45 13 1V2H5V1C5 0.45 4.55 0 4 0C3.45 0 3 0.45 3 1V2H2C0.89 2 0 2.9 0 4V18C0 19.1 0.89 20 2 20H16C17.1 20 18 19.1 18 18V4C18 2.9 17.1 2 16 2ZM15 18H3C2.45 18 2 17.55 2 17V7H16V17C16 17.55 15.55 18 15 18Z" fill="currentColor"/>
    </symbol>
    <symbol id="eye" xmlns="http://www.w3.org/2000/svg" fill="none" viewBox="0 0 22 15">
        <path fill-rule="evenodd" clip-rule="evenodd" d="M11 0C6 0 1.73 3.11 0 7.5C1.73 11.89 6 15 11 15C16 15 20.27 11.89 22 7.5C20.27 3.11 16 0 11 0ZM11 12.5C8.24 12.5 6 10.26 6 7.5C6 4.74 8.24 2.5 11 2.5C13.76 2.5 16 4.74 16 7.5C16 10.26 13.76 12.5 11 12.5ZM11 4.5C9.34 4.5 8 5.84 8 7.5C8 9.16 9.34 10.5 11 10.5C12.66 10.5 14 9.16 14 7.5C14 5.84 12.66 4.5 11 4.5Z" fill="currentColor"/>
    </symbol>
    <symbol id="app" xmlns="http://www.w3.org/2000/svg" fill="none" viewBox="0 0 18 18">
        <path fill-rule="evenodd" clip-rule="evenodd" d="M3 2C2.44772 2 2 2.44772 2 3V5C2 5.55228 2.44772 6 3 6H5C5.55228 6 6 5.55228 6 5V3C6 2.44772 5.55228 2 5 2H3ZM0 3C0 1.34315 1.34315 0 3 0H5C6.65685 0 8 1.34315 8 3V5C8 6.65685 6.65685 8 5 8H3C1.34315 8 0 6.65685 0 5V3ZM10 3C10 1.34315 11.3431 0 13 0H15C16.6569 0 18 1.34315 18 3V5C18 6.65685 16.6569 8 15 8H13C11.3431 8 10 6.65685 10 5V3ZM13 2C12.4477 2 12 2.44772 12 3V5C12 5.55228 12.4477 6 13 6H15C15.5523 6 16 5.55228 16 5V3C16 2.44772 15.5523 2 15 2H13ZM0 13C0 11.3431 1.34315 10 3 10H5C6.65685 10 8 11.3431 8 13V15C8 16.6569 6.65685 18 5 18H3C1.34315 18 0 16.6569 0 15V13ZM3 12C2.44772 12 2 12.4477 2 13V15C2 15.5523 2.44772 16 3 16H5C5.55228 16 6 15.5523 6 15V13C6 12.4477 5.55228 12 5 12H3ZM13 12C12.4477 12 12 12.4477 12 13V15C12 15.5523 12.4477 16 13 16H15C15.5523 16 16 15.5523 16 15V13C16 12.4477 15.5523 12 15 12H13ZM10 13C10 11.3431 11.3431 10 13 10H15C16.6569 10 18 11.3431 18 13V15C18 16.6569 16.6569 18 15 18H13C11.3431 18 10 16.6569 10 15V13Z" fill="currentColor"/>
    </symbol>
    <symbol id="location" xmlns="http://www.w3.org/2000/svg" fill="none" viewBox="0 0 8 11">
        <path d="M4 3.86164e-08C2.93914 3.86164e-08 1.92178 0.413724 1.17165 1.15049C0.421507 1.88725 0 2.88648 0 3.92842C0 7.07112 4 11 4 11C4 11 8 7.07112 8 3.92842C8.00007 3.41248 7.89666 2.90226 7.69567 2.42559C7.49468 1.94891 7.20007 1.51531 6.82863 1.15049C6.45718 0.785665 6.01599 0.49604 5.53066 0.298633C5.04533 0.101225 4.5253 -7.22064e-05 4 3.86164e-08ZM4 5.5C3.68362 5.5 3.37443 5.40836 3.11135 5.23574C2.84828 5.06313 2.64324 4.81704 2.52211 4.52998C2.40099 4.24292 2.36915 3.92705 2.43079 3.62227C2.49243 3.31748 2.64464 3.03748 2.86828 2.81768C3.09191 2.59787 3.37693 2.44874 3.6872 2.38799C3.99747 2.32723 4.31903 2.35731 4.61139 2.47607C4.90375 2.59484 5.15376 2.79682 5.32969 3.05508C5.50562 3.31334 5.59961 3.61661 5.59984 3.92734C5.59991 4.13377 5.55852 4.33817 5.47816 4.52891C5.3978 4.71965 5.28001 4.89314 5.13145 5.03916C4.98289 5.18518 4.80663 5.30063 4.61248 5.37969C4.41834 5.45875 4.21017 5.49993 4 5.5Z" fill="currentColor"/>
    </symbol>
    <symbol id="star" xmlns="http://www.w3.org/2000/svg" fill="none" viewBox="0 0 15 14">
        <path d="M14.4439 5.26471C14.5761 5.67647 14.4733 6 14.15 6.25L10.814 8.77941L12.0926 12.8971C12.2542 13.4706 11.828 14 11.299 14C11.1227 14 10.961 13.9412 10.814 13.8235L7.49282 11.2941L4.1716 13.8235C3.99354 13.9443 3.77645 13.9932 3.56386 13.9605C3.35126 13.9277 3.1589 13.8158 3.02534 13.6471C2.93942 13.5446 2.88307 13.4206 2.86235 13.2884C2.84164 13.1563 2.85734 13.0209 2.90778 12.8971L4.1716 8.80882L0.835687 6.25C0.527078 6 0.424208 5.67647 0.556469 5.26471C0.674035 4.91176 0.982644 4.67647 1.32064 4.67647H5.43543L6.71395 0.573529C6.81682 0.235294 7.12543 0 7.47813 0C7.84552 0 8.16882 0.25 8.27169 0.602941L9.55022 4.67647H13.665C14.0177 4.67647 14.3263 4.91176 14.4439 5.26471Z" fill="currentColor"/>
    </symbol>
    <symbol id="premium" xmlns="http://www.w3.org/2000/svg" fill="none" viewBox="0 0 17 16">
        <path d="M8.00173 0.560558C8.26692 0.262214 8.73308 0.262215 8.99827 0.560559L10.144 1.84955C10.3043 2.02984 10.5495 2.1095 10.7851 2.05784L12.4697 1.68849C12.8596 1.603 13.2367 1.877 13.2759 2.27424L13.4452 3.99052C13.4689 4.23058 13.6204 4.43913 13.8414 4.53583L15.4214 5.2272C15.787 5.38722 15.9311 5.83056 15.7293 6.17497L14.8575 7.66298C14.7355 7.87111 14.7355 8.12889 14.8575 8.33702L15.7293 9.82503C15.9311 10.1694 15.787 10.6128 15.4214 10.7728L13.8414 11.4642C13.6204 11.5609 13.4689 11.7694 13.4452 12.0095L13.2759 13.7258C13.2367 14.123 12.8596 14.397 12.4697 14.3115L10.7851 13.9422C10.5495 13.8905 10.3043 13.9702 10.144 14.1505L8.99827 15.4394C8.73308 15.7378 8.26692 15.7378 8.00173 15.4394L6.85596 14.1505C6.6957 13.9702 6.45054 13.8905 6.21491 13.9422L4.53032 14.3115C4.14041 14.397 3.76328 14.123 3.72409 13.7258L3.5548 12.0095C3.53112 11.7694 3.3796 11.5609 3.15861 11.4642L1.57865 10.7728C1.21295 10.6128 1.0689 10.1694 1.2707 9.82503L2.14254 8.33702C2.26448 8.12889 2.26448 7.87111 2.14254 7.66298L1.2707 6.17497C1.0689 5.83056 1.21295 5.38722 1.57865 5.2272L3.15861 4.53583C3.3796 4.43913 3.53112 4.23058 3.5548 3.99052L3.72409 2.27424C3.76328 1.877 4.14041 1.603 4.53032 1.68849L6.21491 2.05784C6.45054 2.1095 6.6957 2.02984 6.85596 1.84955L8.00173 0.560558Z" fill="currentColor"/>
        <path d="M5.33325 8.10526L7.26182 10L11.3333 6" stroke="#F5F5F5" stroke-linecap="round"/>
    </symbol>
    <symbol id="menu" xmlns="http://www.w3.org/2000/svg" fill="none" viewBox="0 0 18 12">
        <path fill-rule="evenodd" clip-rule="evenodd" d="M0 1C0 0.447715 0.447716 0 1 0H17C17.5523 0 18 0.447715 18 1C18 1.55228 17.5523 2 17 2H1C0.447715 2 0 1.55228 0 1ZM0 6C0 6.55228 0.447715 7 1 7H17C17.5523 7 18 6.55228 18 6C18 5.44772 17.5523 5 17 5H1C0.447716 5 0 5.44772 0 6ZM0 11C0 11.5523 0.447715 12 1 12H17C17.5523 12 18 11.5523 18 11C18 10.4477 17.5523 10 17 10H1C0.447716 10 0 10.4477 0 11Z" fill="currentColor"/>
    </symbol>
</svg>